<?xml version="1.0" encoding="UTF-8" standalone="no"?>
<!-- Generator: Adobe Illustrator 9.0, SVG Export Plug-In  -->
<!-- This set of SVG files is a complete cards game with figures, numbers	-->
<!--    and backs of cards completely designed in SVG.				-->
<!--    									-->
<!--    Copyright (C) 2004 David Bellot						-->
<!--										-->
<!--    This library is free software; you can redistribute it and/or		-->
<!--    modify it under the terms of the GNU Lesser General Public		-->
<!--    License as published by the Free Software Foundation; either		-->
<!--    version 2 of the License, or (at your option) any later version		-->
<!--										-->
<!--    This library is distributed in the hope that it will be useful,		-->
<!--    but WITHOUT ANY WARRANTY; without even the implied warranty of		-->
<!--    MERCHANTABILITY or FITNESS FOR A PARTICULAR PURPOSE.  See the GNU	-->
<!--    Lesser General Public License for more details.				-->
<!--										-->
<!--    You should have received a copy of the GNU Lesser General Public	-->
<!--    License along with this library; if not, write to the Free Software	-->
<!--    Foundation, Inc., 59 Temple Place, Suite 330, Boston, MA 02111-1307  USA-->
<!--										-->
<!--    Contact the author David Bellot at bellot@stat.berkeley.edu or 		-->
<!--    david.bellot@free.fr or yimyom@users.sourceforge.net			-->
<svg
   xmlns:dc="http://purl.org/dc/elements/1.1/"
   xmlns:cc="http://web.resource.org/cc/"
   xmlns:rdf="http://www.w3.org/1999/02/22-rdf-syntax-ns#"
   xmlns:svg="http://www.w3.org/2000/svg"
   xmlns="http://www.w3.org/2000/svg"
   xmlns:sodipodi="http://sodipodi.sourceforge.net/DTD/sodipodi-0.dtd"
   xmlns:inkscape="http://www.inkscape.org/namespaces/inkscape"
   width="208"
   height="303"
   viewBox="0 0 167.08643 242.66797"
   xml:space="preserve"
   id="svg2"
   sodipodi:version="0.32"
   inkscape:version="0.45.1"
   sodipodi:docname="Card_back_14.svg"
   inkscape:output_extension="org.inkscape.output.svg.inkscape"
   sodipodi:docbase="C:\Documents and Settings\Flanker\Desktop"
   version="1.0"><metadata
   id="metadata18"><rdf:RDF><cc:Work
       rdf:about=""><dc:format>image/svg+xml</dc:format><dc:type
         rdf:resource="http://purl.org/dc/dcmitype/StillImage" /></cc:Work></rdf:RDF></metadata><defs
   id="defs16" /><sodipodi:namedview
   inkscape:window-height="573"
   inkscape:window-width="791"
   inkscape:pageshadow="2"
   inkscape:pageopacity="0.0"
   guidetolerance="10.0"
   gridtolerance="10.0"
   objecttolerance="10.0"
   borderopacity="1.0"
   bordercolor="#666666"
   pagecolor="#ffffff"
   id="base"
   inkscape:showpageshadow="false"
   height="303px"
   width="208px"
   inkscape:zoom="1.2428505"
   inkscape:cx="104.42902"
   inkscape:cy="151.66748"
   inkscape:window-x="220"
   inkscape:window-y="240"
   inkscape:current-layer="svg2" />
	<g
   id="Layer_x0020_1"
   style="fill-rule:nonzero;stroke:#000000;stroke-width:0.99849212;stroke-miterlimit:4"
   transform="matrix(1,0,0,1.0030226,0,-0.3667441)">
		<path
   style="fill:#ffffff;stroke-width:0.49924606"
   d="M 166.83643,235.54688 C 166.83643,239.32422 163.75049,242.41797 159.96729,242.41797 L 7.1113281,242.41797 C 3.3359375,242.41797 0.25,239.32422 0.25,235.54688 L 0.25,7.1201172 C 0.25,3.3427734 3.3359375,0.25 7.1113281,0.25 L 159.96729,0.25 C 163.75049,0.25 166.83643,3.3427734 166.83643,7.1201172 L 166.83643,235.54688 L 166.83643,235.54688 z "
   id="path5" />
		<g
   id="g7"
   style="stroke-width:0.99849212">
			<path
   style="fill:#f7f619;stroke:none"
   d="M 152.42432,222.10742 C 152.42432,225.44336 149.86963,228.17578 146.73877,228.17578 L 20.263672,228.17578 C 17.140625,228.17578 14.585937,225.44336 14.585937,222.10742 L 14.585937,20.310547 C 14.585937,16.972656 17.140625,14.241211 20.263672,14.241211 L 146.73877,14.241211 C 149.86963,14.241211 152.42432,16.972656 152.42432,20.310547 L 152.42432,222.10742 L 152.42432,222.10742 z "
   id="path9" />
			<path
   style="fill:none;stroke:#0c3d1b;stroke-width:0.74886906"
   d="M 151.88428,222.10742 C 151.88428,223.8252 144.43506,218.2207 143.35107,219.32813 C 142.32861,220.37109 148.25732,233.27734 146.73877,233.27734 C 143.70557,233.27734 143.70557,228.43359 140.67139,228.43359 C 137.59033,228.43359 137.59033,231.27441 134.5083,231.27441 C 131.46045,231.27441 131.46045,219.40918 128.4126,219.40918 C 125.39893,219.40918 125.39893,233.13086 122.38525,233.13086 C 119.30908,233.13086 119.30908,234.53223 116.23389,234.53223 C 113.18213,234.53223 113.18213,223.59668 110.12939,223.59668 C 107.09814,223.59668 107.09814,227.16016 104.06689,227.16016 C 101.05322,227.16016 101.05322,220.66602 98.039551,220.66602 C 95.037598,220.66602 95.037598,234.93262 92.036621,234.93262 C 89.041504,234.93262 89.041504,234.49609 86.046387,234.49609 C 83.049316,234.49609 83.049316,237.28516 80.052734,237.28516 C 77.04248,237.28516 77.04248,232.67285 74.032715,232.67285 C 70.994629,232.67285 70.994629,235.95508 67.956543,235.95508 C 64.868164,235.95508 64.868164,238.20703 61.779785,238.20703 C 58.746582,238.20703 58.746582,230.77148 55.713867,230.77148 C 52.723144,230.77148 52.723144,235.19434 49.732422,235.19434 C 46.762207,235.19434 46.762207,236.77148 43.791504,236.77148 C 40.803223,236.77148 40.803223,231.91016 37.814941,231.91016 C 34.740723,231.91016 34.740723,231.29199 31.666504,231.29199 C 28.779297,231.29199 28.779297,227.89844 25.89209,227.89844 C 23.077637,227.89844 23.077637,217.60449 20.263672,217.60449 C 18.653808,217.60449 14.600098,229.76563 13.564453,228.60449 C 12.59082,227.51367 14.772461,223.72363 14.772461,222.10742 C 14.772461,219.12695 19.455566,219.12695 19.455566,216.14551 C 19.455566,213.15137 20.864746,213.15137 20.864746,210.15723 C 20.864746,207.14746 21.748535,207.14746 21.748535,204.1377 C 21.748535,201.11035 11.415039,201.11035 11.415039,198.08301 C 11.415039,195.10938 15.536133,195.10938 15.536133,192.13574 C 15.536133,189.14258 14.493652,189.14258 14.493652,186.14844 C 14.493652,183.13281 15.77832,183.13281 15.77832,180.11719 C 15.77832,177.15234 15.286133,177.15234 15.286133,174.18848 C 15.286133,171.19824 13.668457,171.19824 13.668457,168.20801 C 13.668457,165.18848 18.01709,165.18848 18.01709,162.16895 C 18.01709,159.19727 5.126953,159.19727 5.126953,156.22559 C 5.126953,153.21875 8.0253905,153.21875 8.0253905,150.21289 C 8.0253905,147.25195 21.159668,147.25195 21.159668,144.29102 C 21.159668,141.28906 18.893066,141.28906 18.893066,138.28711 C 18.893066,135.32617 21.164551,135.32617 21.164551,132.36621 C 21.164551,129.35742 14.730957,129.35742 14.730957,126.34766 C 14.730957,123.37305 5.8349607,123.37305 5.8349607,120.39844 C 5.8349607,117.36328 18.062988,117.36328 18.062988,114.32812 C 18.062988,111.31836 22.130371,111.31836 22.130371,108.30908 C 22.130371,105.32227 22.523437,105.32227 22.523437,102.33594 C 22.523437,99.369141 16.392578,99.369141 16.392578,96.401855 C 16.392578,93.449707 18.771972,93.449707 18.771972,90.497558 C 18.771972,87.554687 23.665039,87.554687 23.665039,84.611816 C 23.665039,81.670898 19.398437,81.670898 19.398437,78.729492 C 19.398437,75.779297 22.748046,75.779297 22.748046,72.82959 C 22.748046,69.856445 24.376464,69.856445 24.376464,66.882813 C 24.376464,63.865234 10.496093,63.865234 10.496093,60.848145 C 10.496093,57.894531 13.659668,57.894531 13.659668,54.941406 C 13.659668,52.041016 13.231445,52.041016 13.231445,49.140137 C 13.231445,46.120117 7.0170894,46.120117 7.0170894,43.099609 C 7.0170894,40.209473 11.060058,40.209473 11.060058,37.319336 C 11.060058,34.364258 11.847656,34.364258 11.847656,31.40918 C 11.847656,28.483887 19.04541,28.483887 19.04541,25.558594 C 19.04541,22.93457 12.314453,22.93457 12.314453,20.310547 C 12.314453,18.590332 20.186523,21.855469 21.271972,20.748535 C 22.291992,19.70752 18.750488,7.6557618 20.263671,7.6557618 C 23.297363,7.6557618 23.297363,24.836914 26.331054,24.836914 C 29.412597,24.836914 29.412597,19.309082 32.494628,19.309082 C 35.541992,19.309082 35.541992,10.550781 38.589355,10.550781 C 41.603027,10.550781 41.603027,4.6206055 44.617187,4.6206055 C 47.692871,4.6206055 47.692871,15.508301 50.768554,15.508301 C 53.8208,15.508301 53.8208,22.382813 56.873047,22.382813 C 59.903808,22.382813 59.903808,15.17627 62.935058,15.17627 C 65.94873,15.17627 65.94873,13.252441 68.96289,13.252441 C 71.964355,13.252441 71.964355,6.3291016 74.96582,6.3291016 C 77.960449,6.3291016 77.960449,13.742676 80.955566,13.742676 C 83.952636,13.742676 83.952636,18.184082 86.949707,18.184082 C 89.959472,18.184082 89.959472,7.4521485 92.969238,7.4521485 C 96.0083,7.4521485 96.0083,11.772461 99.046386,11.772461 C 102.13525,11.772461 102.13525,17.124512 105.22314,17.124512 C 108.25635,17.124512 108.25635,7.9062501 111.28857,7.9062501 C 114.27978,7.9062501 114.27978,16.217285 117.27002,16.217285 C 120.24072,16.217285 120.24072,14.090821 123.21045,14.090821 C 126.19873,14.090821 126.19873,22.443848 129.18701,22.443848 C 132.26221,22.443848 132.26221,18.432129 135.33643,18.432129 C 138.22314,18.432129 138.22314,9.7319337 141.10986,9.7319337 C 143.92432,9.7319337 143.92432,10.583008 146.73877,10.583008 C 148.35107,10.583008 152.96436,12.143067 154.00049,13.30127 C 154.97705,14.392578 156.44775,18.691406 156.44775,20.310547 C 156.44775,23.291504 149.25537,23.291504 149.25537,26.272461 C 149.25537,29.266602 153.81787,29.266602 153.81787,32.261231 C 153.81787,35.270508 162.2251,35.270508 162.2251,38.280274 C 162.2251,41.307617 151.43115,41.307617 151.43115,44.334961 C 151.43115,47.308594 160.12256,47.308594 160.12256,50.282227 C 160.12256,53.275391 155.93213,53.275391 155.93213,56.269043 C 155.93213,59.285156 142.73584,59.285156 142.73584,62.300781 C 142.73584,65.265625 147.50635,65.265625 147.50635,68.229981 C 147.50635,71.219727 143.00244,71.219727 143.00244,74.209961 C 143.00244,77.229492 156.7124,77.229492 156.7124,80.248535 C 156.7124,83.220703 151.60986,83.220703 151.60986,86.192383 C 151.60986,89.198242 161.50439,89.198242 161.50439,92.20459 C 161.50439,95.166016 146.37353,95.166016 146.37353,98.126953 C 146.37353,101.12891 160.35986,101.12891 160.35986,104.13037 C 160.35986,107.09082 142.73584,107.09082 142.73584,110.05176 C 142.73584,113.06104 149.81592,113.06104 149.81592,116.07031 C 149.81592,119.04492 151.72705,119.04492 151.72705,122.01953 C 151.72705,125.05469 161.1665,125.05469 161.1665,128.08984 C 161.1665,131.09961 157.40674,131.09961 157.40674,134.1084 C 157.40674,137.0957 143.53271,137.0957 143.53271,140.08203 C 143.53271,143.04883 153.62158,143.04883 153.62158,146.0166 C 153.62158,148.96875 150.99951,148.96875 150.99951,151.91992 C 150.99951,154.86328 147.92725,154.86328 147.92725,157.80566 C 147.92725,160.74707 146.46338,160.74707 146.46338,163.68848 C 146.46338,166.63867 150.88428,166.63867 150.88428,169.58887 C 150.88428,172.5625 152.04053,172.5625 152.04053,175.53516 C 152.04053,178.55273 160.61182,178.55273 160.61182,181.56934 C 160.61182,184.52344 163.06299,184.52344 163.06299,187.47656 C 163.06299,190.37695 156.5415,190.37695 156.5415,193.27832 C 156.5415,196.29883 155.15088,196.29883 155.15088,199.31836 C 155.15088,202.20898 156.79736,202.20898 156.79736,205.09863 C 156.79736,208.05371 156.35986,208.05371 156.35986,211.00879 C 156.35986,213.93359 152.51416,213.93359 152.32861,216.85352 C 152.16064,219.48926 151.88428,219.4834 151.88428,222.10742 L 151.88428,222.10742 z "
   id="path11" />
			<path
   style="fill:none;stroke:#0c3d1b;stroke-width:0.49924606"
   d="M 154.38037,222.10742 C 154.38037,222.83105 151.72314,223.32715 151.50342,223.97168 C 151.30811,224.54492 152.24365,225.72168 151.90479,226.2002 C 151.51514,226.75 154.5376,232.60059 153.99854,232.9834 C 153.52686,233.31738 150.52783,233.02832 149.97217,233.20215 C 149.46924,233.35938 147.28857,218.7832 146.73877,218.7832 C 145.82373,218.7832 145.82373,222.8252 144.90869,222.8252 C 143.98096,222.8252 143.98096,235.35156 143.05322,235.35156 C 142.11182,235.35156 142.11182,228.0293 141.17041,228.0293 C 140.26611,228.0293 140.26611,219.05469 139.36279,219.05469 C 138.4458,219.05469 138.4458,220.07031 137.52881,220.07031 C 136.59814,220.07031 136.59814,218.5332 135.66748,218.5332 C 134.72314,218.5332 134.72314,231.98828 133.77783,231.98828 C 132.87061,231.98828 132.87061,230.30273 131.96338,230.30273 C 131.04248,230.30273 131.04248,229.33984 130.12158,229.33984 C 129.18604,229.33984 129.18604,223.03711 128.25049,223.03711 C 127.29932,223.03711 127.29932,225.20605 126.34814,225.20605 C 125.43604,225.20605 125.43604,238.24609 124.52295,238.24609 C 123.59619,238.24609 123.59619,219.27246 122.66846,219.27246 C 121.7251,219.27246 121.7251,236.12402 120.78174,236.12402 C 119.87744,236.12402 119.87744,237.47266 118.97217,237.47266 C 118.05225,237.47266 118.05225,234.24023 117.13232,234.24023 C 116.1958,234.24023 116.1958,229.44336 115.25928,229.44336 C 114.36279,229.44336 114.36279,225.77051 113.46631,225.77051 C 112.55322,225.77051 112.55322,233.39844 111.64014,233.39844 C 110.70947,233.39844 110.70947,238.14746 109.77978,238.14746 C 108.83057,238.14746 108.83057,231.47852 107.88232,231.47852 C 106.9751,231.47852 106.9751,217.80371 106.06689,217.80371 C 105.14111,217.80371 105.14111,228.94434 104.21436,228.94434 C 103.26904,228.94434 103.26904,221.31738 102.32373,221.31738 C 101.42041,221.31738 101.42041,225.05176 100.51611,225.05176 C 99.592285,225.05176 99.592285,237.36426 98.669433,237.36426 C 97.725097,237.36426 97.725097,231.32617 96.781738,231.32617 C 95.879394,231.32617 95.879394,224.48242 94.978027,224.48242 C 94.055175,224.48242 94.055175,229.78906 93.1333,229.78906 C 92.189941,229.78906 92.189941,222.33008 91.245605,222.33008 C 90.344238,222.33008 90.344238,224.92871 89.441894,224.92871 C 88.518066,224.92871 88.518066,227.32617 87.594238,227.32617 C 86.646972,227.32617 86.646972,229.91699 85.699707,229.91699 C 84.79541,229.91699 84.79541,219.58398 83.891113,219.58398 C 82.96289,219.58398 82.96289,222.60449 82.034668,222.60449 C 81.149902,222.60449 81.149902,235.7168 80.265625,235.7168 C 79.356933,235.7168 79.356933,224.75391 78.448242,224.75391 C 77.513183,224.75391 77.513183,222.97363 76.578613,222.97363 C 75.687988,222.97363 75.687988,219.91602 74.796875,219.91602 C 73.879394,219.91602 73.879394,228.91016 72.961425,228.91016 C 72.014648,228.91016 72.014648,227.92773 71.067871,227.92773 C 70.165527,227.92773 70.165527,220.56934 69.262695,220.56934 C 68.329589,220.56934 68.329589,221.45117 67.396972,221.45117 C 66.509277,221.45117 66.509277,218.78906 65.621093,218.78906 C 64.70166,218.78906 64.70166,218.66602 63.782226,218.66602 C 62.908691,218.66602 62.908691,237.96484 62.034667,237.96484 C 61.127929,237.96484 61.127929,219.54687 60.221191,219.54687 C 59.276855,219.54687 59.276855,234.58203 58.333007,234.58203 C 57.434081,234.58203 57.434081,230.35547 56.535644,230.35547 C 55.596679,230.35547 55.596679,217.80176 54.657714,217.80176 C 53.76416,217.80176 53.76416,230.38184 52.871093,230.38184 C 51.934081,230.38184 51.934081,228.4248 50.996581,228.4248 C 50.10498,228.4248 50.10498,237.39648 49.21289,237.39648 C 48.27246,237.39648 48.27246,228.29199 47.332031,228.29199 C 46.436035,228.29199 46.436035,224.9834 45.53955,224.9834 C 44.689941,224.9834 44.689941,228.63867 43.84082,228.63867 C 42.937988,228.63867 42.937988,218.10644 42.035644,218.10644 C 41.178222,218.10644 41.178222,220.48144 40.320312,220.48144 C 39.399902,220.48144 39.399902,231.25781 38.479003,231.25781 C 37.59912,231.25781 37.59912,222.63965 36.719726,222.63965 C 35.883788,222.63965 35.883788,225.84961 35.047851,225.84961 C 34.1333,225.84961 34.1333,233.50586 33.218749,233.50586 C 32.337402,233.50586 32.337402,230.64941 31.456054,230.64941 C 30.608886,230.64941 30.608886,224.73437 29.76123,224.73437 C 28.947265,224.73437 28.947265,225.71191 28.1333,225.71191 C 27.194335,225.71191 27.194335,224.81641 26.25537,224.81641 C 25.47705,224.81641 25.47705,232.51074 24.69873,232.51074 C 23.935058,232.51074 23.935058,224.61914 23.171874,224.61914 C 22.410644,224.61914 22.410644,234.91113 21.648925,234.91113 C 20.956542,234.91113 20.956542,232.06445 20.263671,232.06445 C 19.585937,232.06445 16.32373,234.7334 15.720214,234.49805 C 15.118163,234.26269 11.674804,233.54785 11.186523,233.12305 C 10.704101,232.70215 18.745117,224.14453 18.412597,223.5791 C 18.126953,223.09473 7.2177729,226.3418 7.0693354,225.77832 C 6.9321284,225.25781 20.005371,222.67285 20.005371,222.10742 C 20.005371,221.20117 12.22998,221.20117 12.22998,220.2959 C 12.22998,219.38281 6.0908198,219.38281 6.0908198,218.46875 C 6.0908198,217.54687 24.45166,217.54687 24.45166,216.625 C 24.45166,215.69531 18.784179,215.69531 18.784179,214.76465 C 18.784179,213.82617 13.035156,213.82617 13.035156,212.8877 C 13.035156,211.98047 8.2153315,211.98047 8.2153315,211.07422 C 8.2153315,210.15918 13.075683,210.15918 13.075683,209.24414 C 13.075683,208.32031 19.398437,208.32031 19.398437,207.39746 C 19.398437,206.46484 15.756347,206.46484 15.756347,205.5332 C 15.756347,204.63379 11.615234,204.63379 11.615234,203.73437 C 11.615234,202.82617 24.835937,202.82617 24.835937,201.91797 C 24.835937,201.00098 16.02832,201.00098 16.02832,200.08398 C 16.02832,199.1582 16.490722,199.1582 16.490722,198.23242 C 16.490722,197.29687 10.357421,197.29687 10.357421,196.3623 C 10.357421,195.46094 22.160156,195.46094 22.160156,194.55859 C 22.160156,193.64746 16.737304,193.64746 16.737304,192.73633 C 16.737304,191.81641 10.106445,191.81641 10.106445,190.89648 C 10.106445,189.9668 4.7548822,189.9668 4.7548822,189.03711 C 4.7548822,188.09766 22.267577,188.09766 22.267577,187.1582 C 22.267577,186.25195 22.128417,186.25195 22.128417,185.34668 C 22.128417,184.43164 23.725585,184.43164 23.725585,183.51562 C 23.725585,182.58984 15.937011,182.58984 15.937011,181.66504 C 15.937011,180.73047 12.558593,180.73047 12.558593,179.79492 C 12.558593,178.89355 13.484374,178.89355 13.484374,177.99219 C 13.484374,177.08105 7.4374994,177.08105 7.4374994,176.16992 C 7.4374994,175.24805 5.2734369,175.24805 5.2734369,174.32715 C 5.2734369,173.39551 21.059081,173.39551 21.059081,172.46387 C 21.059081,171.56641 5.8842767,171.56641 5.8842767,170.66992 C 5.8842767,169.76269 4.0864251,169.76269 4.0864251,168.85547 C 4.0864251,167.9375 5.5268548,167.9375 5.5268548,167.01953 C 5.5268548,166.08984 9.6552728,166.08984 9.6552728,165.16113 C 9.6552728,164.2207 18.545898,164.2207 18.545898,163.28125 C 18.545898,162.37598 25.189452,162.37598 25.189452,161.4707 C 25.189452,160.55469 11.108886,160.55469 11.108886,159.63867 C 11.108886,158.71094 17.332031,158.71094 17.332031,157.78418 C 17.332031,156.84473 17.878906,156.84473 17.878906,155.90527 C 17.878906,155.00195 12.053222,155.00195 12.053222,154.09863 C 12.053222,153.18359 19.897949,153.18359 19.897949,152.26855 C 19.897949,151.3418 7.1967767,151.3418 7.1967767,150.41406 C 7.1967767,149.47461 6.4082025,149.47461 6.4082025,148.53418 C 6.4082025,147.63086 15.134277,147.63086 15.134277,146.72852 C 15.134277,145.8125 9.3232415,145.8125 9.3232415,144.89746 C 9.3232415,143.96875 15.646484,143.96875 15.646484,143.04102 C 15.646484,142.14941 13.555175,142.14941 13.555175,141.25781 C 13.555175,140.35352 7.9848626,140.35352 7.9848626,139.45019 C 7.9848626,138.5332 25.225097,138.5332 25.225097,137.61719 C 25.225097,136.6875 14.683593,136.6875 14.683593,135.75684 C 14.683593,134.86328 11.65039,134.86328 11.65039,133.9707 C 11.65039,133.06445 25.083495,133.06445 25.083495,132.15918 C 25.083495,131.23926 16.463867,131.23926 16.463867,130.31934 C 16.463867,129.38477 21.560546,129.38477 21.560546,128.45117 C 21.560546,127.55469 5.2373041,127.55469 5.2373041,126.6582 C 5.2373041,125.74805 18.485839,125.74805 18.485839,124.83789 C 18.485839,123.91211 21.638183,123.91211 21.638183,122.9873 C 21.638183,122.10059 16.498046,122.10059 16.498046,121.21436 C 16.498046,120.31348 17.545898,120.31348 17.545898,119.41211 C 17.545898,118.49561 15.622558,118.49561 15.622558,117.5791 C 15.622558,116.64648 19.985351,116.64648 19.985351,115.71338 C 19.985351,114.82031 10.127929,114.82031 10.127929,113.92676 C 10.127929,113.01758 8.221191,113.01758 8.221191,112.1084 C 8.221191,111.18213 15.984863,111.18213 15.984863,110.25586 C 15.984863,109.37012 10.048339,109.37012 10.048339,108.48437 C 10.048339,107.58154 13.944336,107.58154 13.944336,106.67871 C 13.944336,105.7583 23.843261,105.7583 23.843261,104.83789 C 23.843261,103.89893 16.464355,103.89893 16.464355,102.95996 C 16.464355,102.06152 13.258789,102.06152 13.258789,101.16357 C 13.258789,100.24658 20.080566,100.24658 20.080566,99.329589 C 20.080566,98.392577 16.29248,98.392577 16.29248,97.456054 C 16.29248,96.561034 9.5742184,96.561034 9.5742184,95.666015 C 9.5742184,94.750976 9.7817379,94.750976 9.7817379,93.835937 C 9.7817379,92.899902 21.819824,92.899902 21.819824,91.963866 C 21.819824,91.069823 15.585937,91.069823 15.585937,90.175781 C 15.585937,89.260741 23.412597,89.260741 23.412597,88.345214 C 23.412597,87.407226 17.224609,87.407226 17.224609,86.469238 C 17.224609,85.574218 10.002441,85.574218 10.002441,84.67871 C 10.002441,83.760741 6.655273,83.760741 6.655273,82.842284 C 6.655273,81.967773 4.811523,81.967773 4.811523,81.093261 C 4.811523,80.195312 20.052246,80.195312 20.052246,79.297363 C 20.052246,78.374023 19.527832,78.374023 19.527832,77.451171 C 19.527832,76.572265 4.1538082,76.572265 4.1538082,75.693359 C 4.1538082,74.788574 21.006835,74.788574 21.006835,73.883788 C 21.006835,72.951171 24.47705,72.951171 24.47705,72.018554 C 24.47705,71.130859 11.350585,71.130859 11.350585,70.242675 C 11.350585,69.325683 17.069335,69.325683 17.069335,68.408691 C 17.069335,67.537109 25.033203,67.537109 25.033203,66.665527 C 25.033203,65.764159 10.854003,65.764159 10.854003,64.862792 C 10.854003,63.928222 6.4838863,63.928222 6.4838863,62.993652 C 6.4838863,62.104491 12.130859,62.104491 12.130859,61.215331 C 12.130859,60.291015 23.889648,60.291015 23.889648,59.366699 C 23.889648,58.488281 15.564453,58.488281 15.564453,57.610351 C 15.564453,56.694824 22.065429,56.694824 22.065429,55.779296 C 22.065429,54.910156 17.065918,54.910156 17.065918,54.041015 C 17.065918,53.131835 23.018554,53.131835 23.018554,52.222655 C 23.018554,51.360351 7.4472653,51.360351 7.4472653,50.498046 C 7.4472653,49.591796 12.061035,49.591796 12.061035,48.685546 C 12.061035,47.826171 23.416504,47.826171 23.416504,46.966796 C 23.416504,46.058593 8.5307614,46.058593 8.5307614,45.149902 C 8.5307614,44.287109 4.700195,44.287109 4.700195,43.424804 C 4.700195,42.506347 4.484863,42.506347 4.484863,41.58789 C 4.484863,40.71289 22.524414,40.71289 22.524414,39.838378 C 22.524414,39.009765 3.9204099,39.009765 3.9204099,38.181151 C 3.9204099,37.287108 11.725586,37.287108 11.725586,36.393066 C 11.725586,35.541015 17.284179,35.541015 17.284179,34.688476 C 17.284179,33.879882 5.5375975,33.879882 5.5375975,33.071777 C 5.5375975,32.179687 13.426758,32.179687 13.426758,31.287597 C 13.426758,30.426757 7.9233397,30.426757 7.9233397,29.565917 C 7.9233397,28.735351 8.9438475,28.735351 8.9438475,27.904784 C 8.9438475,27.102538 4.3286131,27.102538 4.3286131,26.299804 C 4.3286131,25.520995 17.161621,25.520995 17.161621,24.742187 C 17.161621,23.978515 17.166504,23.978515 17.166504,23.215331 C 17.166504,22.453124 23.60791,22.453124 23.60791,21.691405 C 23.60791,21.000976 4.1679686,21.000976 4.1679686,20.310546 C 4.1679686,19.676757 22.447754,21.368651 22.618652,20.792968 C 22.815918,20.126952 19.181152,19.920409 19.567871,19.374511 C 19.957519,18.824218 17.752929,17.256835 18.291504,16.874511 C 18.763672,16.540038 19.440429,18.857909 19.995605,18.685058 C 20.496582,18.529296 19.717285,16.945312 20.263672,16.945312 C 21.178711,16.945312 21.178711,10.080077 22.09375,10.080077 C 23.021972,10.080077 23.021972,11.708495 23.949707,11.708495 C 24.891113,11.708495 24.891113,9.989257 25.832031,9.989257 C 26.73584,9.989257 26.73584,17.764648 27.640136,17.764648 C 28.557129,17.764648 28.557129,16.085448 29.474121,16.085448 C 30.404785,16.085448 30.404785,14.443847 31.335449,14.443847 C 32.280273,14.443847 32.280273,4.6367179 33.225097,4.6367179 C 34.132324,4.6367179 34.132324,21.327636 35.039062,21.327636 C 35.960449,21.327636 35.960449,23.386718 36.881347,23.386718 C 37.816894,23.386718 37.816894,6.2871085 38.752441,6.2871085 C 39.703613,6.2871085 39.703613,6.4501944 40.654297,6.4501944 C 41.566894,6.4501944 41.566894,6.80371 42.479004,6.80371 C 43.406738,6.80371 43.406738,16.693847 44.334472,16.693847 C 45.277832,16.693847 45.277832,5.5048819 46.221191,5.5048819 C 47.125488,5.5048819 47.125488,14.641601 48.029785,14.641601 C 48.949707,14.641601 48.949707,8.4482413 49.870117,8.4482413 C 50.806152,8.4482413 50.806152,23.814452 51.742676,23.814452 C 52.639648,23.814452 52.639648,6.4013663 53.536621,6.4013663 C 54.449707,6.4013663 54.449707,22.107909 55.362793,22.107909 C 56.292969,22.107909 56.292969,5.1347648 57.223144,5.1347648 C 58.171387,5.1347648 58.171387,14.520507 59.119629,14.520507 C 60.027832,14.520507 60.027832,12.496581 60.936035,12.496581 C 61.861816,12.496581 61.861816,6.5385734 62.788086,6.5385734 C 63.73291,6.5385734 63.73291,6.0761711 64.678223,6.0761711 C 65.58252,6.0761711 65.58252,24.512206 66.486816,24.512206 C 67.410156,24.512206 67.410156,23.523925 68.333496,23.523925 C 69.276856,23.523925 69.276856,23.27246 70.220703,23.27246 C 71.122559,23.27246 71.122559,16.49707 72.024414,16.49707 C 72.946777,16.49707 72.946777,9.0751946 73.869141,9.0751946 C 74.812988,9.0751946 74.812988,18.382812 75.757324,18.382812 C 76.65918,18.382812 76.65918,6.1142571 77.561035,6.1142571 C 78.484863,6.1142571 78.484863,5.6010735 79.408203,5.6010735 C 80.355469,5.6010735 80.355469,11.416015 81.302734,11.416015 C 82.207031,11.416015 82.207031,8.2431633 83.111328,8.2431633 C 84.039551,8.2431633 84.039551,5.5156242 84.967285,5.5156242 C 85.852051,5.5156242 85.852051,9.8837883 86.736817,9.8837883 C 87.64502,9.8837883 87.64502,21.918945 88.554199,21.918945 C 89.48877,21.918945 89.48877,9.3842766 90.424317,9.3842766 C 91.314942,9.3842766 91.314942,21.071777 92.205567,21.071777 C 93.123535,21.071777 93.123535,23.462402 94.040527,23.462402 C 94.987793,23.462402 94.987793,6.3388664 95.935059,6.3388664 C 96.837403,6.3388664 96.837403,9.9697258 97.739746,9.9697258 C 98.672363,9.9697258 98.672363,7.9560539 99.605957,7.9560539 C 100.49365,7.9560539 100.49365,22.415038 101.38135,22.415038 C 102.30127,22.415038 102.30127,14.009765 103.22021,14.009765 C 104.09424,14.009765 104.09424,15.676757 104.96729,15.676757 C 105.87354,15.676757 105.87354,5.8437493 106.78076,5.8437493 C 107.7251,5.8437493 107.7251,10.136718 108.66943,10.136718 C 109.56885,10.136718 109.56885,9.7309564 110.46729,9.7309564 C 111.40576,9.7309564 111.40576,13.048827 112.34424,13.048827 C 113.23779,13.048827 113.23779,7.2084955 114.13135,7.2084955 C 115.06885,7.2084955 115.06885,24.207519 116.00537,24.207519 C 116.89697,24.207519 116.89697,3.6220697 117.78955,3.6220697 C 118.72998,3.6220697 118.72998,21.052734 119.67041,21.052734 C 120.56689,21.052734 120.56689,5.5908197 121.4624,5.5908197 C 122.31201,5.5908197 122.31201,13.188476 123.16162,13.188476 C 124.06494,13.188476 124.06494,15.635253 124.96729,15.635253 C 125.82471,15.635253 125.82471,5.544433 126.68213,5.544433 C 127.60303,5.544433 127.60303,11.904785 128.52393,11.904785 C 129.40283,11.904785 129.40283,15.89746 130.28272,15.89746 C 131.11865,15.89746 131.11865,21.13623 131.95459,21.13623 C 132.86963,21.13623 132.86963,19.663574 133.78369,19.663574 C 134.66455,19.663574 134.66455,8.6899408 135.54639,8.6899408 C 136.39307,8.6899408 136.39307,16.726562 137.24072,16.726562 C 138.05518,16.726562 138.05518,13.277343 138.86865,13.277343 C 139.80713,13.277343 139.80713,23.945312 140.74658,23.945312 C 141.52588,23.945312 141.52588,15.472167 142.3042,15.472167 C 143.06689,15.472167 143.06689,16.525878 143.83057,16.525878 C 144.59229,16.525878 144.59229,7.6640619 145.354,7.6640619 C 146.04639,7.6640619 146.04639,5.9086908 146.73877,5.9086908 C 147.41748,5.9086908 145.54639,20.859374 146.15088,21.094238 C 146.75342,21.328613 150.29834,14.642577 150.7876,15.067382 C 151.27002,15.487792 147.92627,18.472167 148.25928,19.03662 C 148.54541,19.521484 142.57764,20.609863 142.72607,21.172851 C 142.86377,21.694824 145.53857,19.743163 145.53857,20.310546 C 145.53857,21.216308 160.70752,21.216308 160.70752,22.12207 C 160.70752,23.036132 145.44287,23.036132 145.44287,23.949706 C 145.44287,24.871093 162.22607,24.871093 162.22607,25.792968 C 162.22607,26.723144 145.6665,26.723144 145.6665,27.65332 C 145.6665,28.591796 156.35889,28.591796 156.35889,29.530761 C 156.35889,30.437499 163.0044,30.437499 163.0044,31.343749 C 163.0044,32.258788 160.7544,32.258788 160.7544,33.173339 C 160.7544,34.096679 155.96924,34.096679 155.96924,35.020019 C 155.96924,35.952148 152.27881,35.952148 152.27881,36.884277 C 152.27881,37.784179 143.62842,37.784179 143.62842,38.683593 C 143.62842,39.591796 154.75928,39.591796 154.75928,40.499999 C 154.75928,41.416992 161.20459,41.416992 161.20459,42.333495 C 161.20459,43.259277 157.76709,43.259277 157.76709,44.185058 C 157.76709,45.120117 153.47803,45.120117 153.47803,46.055175 C 153.47803,46.957031 158.94678,46.957031 158.94678,47.859374 C 158.94678,48.770507 159.6167,48.770507 159.6167,49.681152 C 159.6167,50.601562 150.05225,50.601562 150.05225,51.521484 C 150.05225,52.451171 152.479,52.451171 152.479,53.380859 C 152.479,54.320312 145.05029,54.320312 145.05029,55.259765 C 145.05029,56.166015 162.21436,56.166015 162.21436,57.071777 C 162.21436,57.987304 160.4751,57.987304 160.4751,58.902343 C 160.4751,59.827148 144.88428,59.827148 144.88428,60.752441 C 144.88428,61.687988 155.19971,61.687988 155.19971,62.623535 C 155.19971,63.524413 150.48389,63.524413 150.48389,64.425781 C 150.48389,65.336913 150.45557,65.336913 150.45557,66.248046 C 150.45557,67.168945 157.55908,67.168945 157.55908,68.090331 C 157.55908,69.02246 142.5542,69.02246 142.5542,69.954101 C 142.5542,70.851074 150.9585,70.851074 150.9585,71.748046 C 150.9585,72.655273 153.91553,72.655273 153.91553,73.562988 C 153.91553,74.480956 145.6001,74.480956 145.6001,75.398925 C 145.6001,76.327636 149.6001,76.327636 149.6001,77.256347 C 149.6001,78.196777 146.55127,78.196777 146.55127,79.137206 C 146.55127,80.041992 146.64209,80.041992 146.64209,80.946777 C 146.64209,81.862792 149.54443,81.862792 149.54443,82.778808 C 149.54443,83.706054 161.57471,83.706054 161.57471,84.633789 C 161.57471,85.573242 154.22119,85.573242 154.22119,86.512695 C 154.22119,87.416015 162.05811,87.416015 162.05811,88.319335 C 162.05811,89.234375 161.96436,89.234375 161.96436,90.149414 C 161.96436,91.07666 159.82666,91.07666 159.82666,92.003906 C 159.82666,92.943359 146.07275,92.943359 146.07275,93.8833 C 146.07275,94.786621 156.65088,94.786621 156.65088,95.689941 C 156.65088,96.605468 156.06104,96.605468 156.06104,97.520996 C 156.06104,98.449218 161.84815,98.449218 161.84815,99.377441 C 161.84815,100.26855 143.49463,100.26855 143.49463,101.15967 C 143.49463,102.06348 144.54834,102.06348 144.54834,102.96728 C 144.54834,103.88379 161.93213,103.88379 161.93213,104.80078 C 161.93213,105.73144 152.37549,105.73144 152.37549,106.66162 C 152.37549,107.5542 161.41162,107.5542 161.41162,108.44678 C 161.41162,109.35254 147.27295,109.35254 147.27295,110.25879 C 147.27295,111.17871 158.53369,111.17871 158.53369,112.09863 C 158.53369,113.0332 162.94775,113.0332 162.94775,113.96728 C 162.94775,114.86328 161.09326,114.86328 161.09326,115.75928 C 161.09326,116.66992 157.24463,116.66992 157.24463,117.58008 C 157.24463,118.50537 159.05615,118.50537 159.05615,119.43066 C 159.05615,120.31738 147.604,120.31738 147.604,121.20361 C 147.604,122.10449 159.29736,122.10449 159.29736,123.00586 C 159.29736,123.92187 153.13916,123.92187 153.13916,124.83887 C 153.13916,125.77148 150.76904,125.77148 150.76904,126.70508 C 150.76904,127.59766 147.43115,127.59766 147.43115,128.49121 C 147.43115,129.40039 160.10693,129.40039 160.10693,130.30957 C 160.10693,131.23633 151.72998,131.23633 151.72998,132.16211 C 151.72998,133.04785 160.09229,133.04785 160.09229,133.93359 C 160.09229,134.83594 156.30908,134.83594 156.30908,135.73926 C 156.30908,136.66016 142.80518,136.66016 142.80518,137.58008 C 142.80518,138.51953 141.7583,138.51953 141.7583,139.45801 C 141.7583,140.35644 146.72608,140.35644 146.72608,141.25488 C 146.72608,142.17187 159.19483,142.17187 159.19483,143.08789 C 159.19483,144.02539 157.26123,144.02539 157.26123,144.96191 C 157.26123,145.85742 162.60108,145.85742 162.60108,146.75195 C 162.60108,147.66699 147.36475,147.66699 147.36475,148.58203 C 147.36475,149.51758 161.74561,149.51758 161.74561,150.4541 C 161.74561,151.34766 161.13135,151.34766 161.13135,152.24219 C 161.13135,153.15723 159.34131,153.15723 159.34131,154.07227 C 159.34131,155.00977 158.87549,155.00977 158.87549,155.94824 C 158.87549,156.84375 147.78955,156.84375 147.78955,157.73926 C 147.78955,158.65723 142.40283,158.65723 142.40283,159.57519 C 142.40283,160.45019 155.11084,160.45019 155.11084,161.32519 C 155.11084,162.22266 160.08154,162.22266 160.08154,163.12109 C 160.08154,164.04394 147.13721,164.04394 147.13721,164.9668 C 147.13721,165.8457 161.59229,165.8457 161.59229,166.72461 C 161.59229,167.62891 158.39795,167.62891 158.39795,168.53418 C 158.39795,169.4668 147.13135,169.4668 147.13135,170.39941 C 147.13135,171.28711 157.70459,171.28711 157.70459,172.17578 C 157.70459,173.09277 151.12744,173.09277 151.12744,174.00977 C 151.12744,174.88086 153.62158,174.88086 153.62158,175.75195 C 153.62158,176.65332 153.68408,176.65332 153.68408,177.55469 C 153.68408,178.49023 147.2251,178.49023 147.2251,179.4248 C 147.2251,180.31445 154.51221,180.31445 154.51221,181.20312 C 154.51221,182.12695 148.92041,182.12695 148.92041,183.05176 C 148.92041,183.92969 152.31885,183.92969 152.31885,184.80762 C 152.31885,185.72266 156.6294,185.72266 156.6294,186.63867 C 156.6294,187.50781 158.22412,187.50781 158.22412,188.37695 C 158.22412,189.28613 158.78662,189.28613 158.78662,190.19531 C 158.78662,191.05762 150.69092,191.05762 150.69092,191.91992 C 150.69092,192.82617 152.75733,192.82617 152.75733,193.73242 C 152.75733,194.5918 156.13525,194.5918 156.13525,195.45117 C 156.13525,196.35937 159.68115,196.35937 159.68115,197.26758 C 159.68115,198.13086 143.49072,198.13086 143.49072,198.99316 C 143.49072,199.91211 144.51709,199.91211 144.51709,200.83008 C 144.51709,201.70508 155.64893,201.70508 155.64893,202.58008 C 155.64893,203.4082 152.97803,203.4082 152.97803,204.23633 C 152.97803,205.13086 148.18701,205.13086 148.18701,206.02441 C 148.18701,206.87695 146.00049,206.87695 146.00049,207.72949 C 146.00049,208.53809 144.92822,208.53809 144.92822,209.34668 C 144.92822,210.23828 159.43311,210.23828 159.43311,211.13086 C 159.43311,211.99219 156.73389,211.99219 156.73389,212.85254 C 156.73389,213.68262 158.34229,213.68262 158.34229,214.51269 C 158.34229,215.31543 158.28858,215.31543 158.28858,216.11816 C 158.28858,216.89648 151.18311,216.89648 151.18311,217.67578 C 151.18311,218.43945 145.65381,218.43945 145.65381,219.20312 C 145.65381,219.96484 157.84229,214.92285 158.34717,215.49414 C 159.13916,216.39062 154.38037,221.41699 154.38037,222.10742 L 154.38037,222.10742 z "
   id="path13" />
		</g>
	</g>
</svg>