<?xml version="1.0" encoding="UTF-8" standalone="no"?>
<!-- Generator: Adobe Illustrator 9.0, SVG Export Plug-In  -->
<!-- This set of SVG files is a complete cards game with figures, numbers	-->
<!--    and backs of cards completely designed in SVG.				-->
<!--    									-->
<!--    Copyright (C) 2004 David Bellot						-->
<!--										-->
<!--    This library is free software; you can redistribute it and/or		-->
<!--    modify it under the terms of the GNU Lesser General Public		-->
<!--    License as published by the Free Software Foundation; either		-->
<!--    version 2 of the License, or (at your option) any later version		-->
<!--										-->
<!--    This library is distributed in the hope that it will be useful,		-->
<!--    but WITHOUT ANY WARRANTY; without even the implied warranty of		-->
<!--    MERCHANTABILITY or FITNESS FOR A PARTICULAR PURPOSE.  See the GNU	-->
<!--    Lesser General Public License for more details.				-->
<!--										-->
<!--    You should have received a copy of the GNU Lesser General Public	-->
<!--    License along with this library; if not, write to the Free Software	-->
<!--    Foundation, Inc., 59 Temple Place, Suite 330, Boston, MA 02111-1307  USA-->
<!--										-->
<!--    Contact the author David Bellot at bellot@stat.berkeley.edu or 		-->
<!--    david.bellot@free.fr or yimyom@users.sourceforge.net			-->
<svg
   xmlns:dc="http://purl.org/dc/elements/1.1/"
   xmlns:cc="http://web.resource.org/cc/"
   xmlns:rdf="http://www.w3.org/1999/02/22-rdf-syntax-ns#"
   xmlns:svg="http://www.w3.org/2000/svg"
   xmlns="http://www.w3.org/2000/svg"
   xmlns:sodipodi="http://sodipodi.sourceforge.net/DTD/sodipodi-0.dtd"
   xmlns:inkscape="http://www.inkscape.org/namespaces/inkscape"
   width="208"
   height="303"
   viewBox="0 0 167.08643 242.66699"
   xml:space="preserve"
   id="svg2"
   sodipodi:version="0.32"
   inkscape:version="0.45.1"
   sodipodi:docname="Card_back_08.svg"
   inkscape:output_extension="org.inkscape.output.svg.inkscape"
   sodipodi:docbase="C:\Documents and Settings\Flanker\Desktop"
   version="1.0"><metadata
   id="metadata30"><rdf:RDF><cc:Work
       rdf:about=""><dc:format>image/svg+xml</dc:format><dc:type
         rdf:resource="http://purl.org/dc/dcmitype/StillImage" /></cc:Work></rdf:RDF></metadata><defs
   id="defs28" /><sodipodi:namedview
   inkscape:window-height="573"
   inkscape:window-width="791"
   inkscape:pageshadow="2"
   inkscape:pageopacity="0.0"
   guidetolerance="10.0"
   gridtolerance="10.0"
   objecttolerance="10.0"
   borderopacity="1.0"
   bordercolor="#666666"
   pagecolor="#ffffff"
   id="base"
   width="208px"
   height="303px"
   inkscape:showpageshadow="false"
   inkscape:zoom="1.2428555"
   inkscape:cx="104.42902"
   inkscape:cy="151.66687"
   inkscape:window-x="307"
   inkscape:window-y="223"
   inkscape:current-layer="svg2" />
	<g
   id="Layer_x0020_1"
   style="fill:none;fill-rule:nonzero;stroke:#262525;stroke-width:6.29048777;stroke-miterlimit:4"
   transform="matrix(1,0,0,1.0030267,0,-0.3672401)">
		<path
   style="fill:#f9f97f;fill-rule:evenodd;stroke:#000000;stroke-width:0.49924502"
   d="M 166.83643,235.54785 C 166.83643,239.3252 163.75049,242.41699 159.96631,242.41699 L 7.1113281,242.41699 C 3.3364258,242.41699 0.25,239.3252 0.25,235.54785 L 0.25,7.1201172 C 0.25,3.3432617 3.3364258,0.25 7.1113281,0.25 L 159.96631,0.25 C 163.75049,0.25 166.83643,3.3432617 166.83643,7.1201172 L 166.83643,235.54785 L 166.83643,235.54785 z "
   id="path5" />
		<path
   style="fill:#cc3133;fill-rule:evenodd;stroke:none"
   d="M 32.70459,84.703125 C 34.905762,93.31543 34.901855,101.55762 30.674316,103.78809 C 26.145508,106.18066 20.881348,101.28906 15.516602,94.539063 C 9.9956055,87.592773 10.364258,78.096191 16.444824,74.883301 C 22.525879,71.675293 30.48584,76.007813 32.70459,84.703125 L 32.70459,84.703125 z "
   id="path7" />
		<path
   style="stroke-width:6.29048777;stroke-miterlimit:10"
   d="M 32.70459,84.703125 C 34.905762,93.31543 34.901855,101.55762 30.674316,103.78809 C 26.145508,106.18066 20.881348,101.28906 15.516602,94.539063 C 9.9956055,87.592773 10.364258,78.096191 16.444824,74.883301 C 22.525879,71.675293 30.48584,76.007813 32.70459,84.703125 L 32.70459,84.703125 z "
   id="path9" />
		<path
   style="fill:#4baf65;fill-rule:evenodd;stroke:none"
   d="M 59.838379,67.562012 C 58.905273,77.058594 55.834961,85.328613 50.64502,85.926758 C 45.083984,86.571777 41.474609,79.620606 38.453125,70.764648 C 35.342773,61.652344 39.256348,52.264648 46.72168,51.398926 C 54.1875,50.538574 60.785156,57.973633 59.838379,67.562012 L 59.838379,67.562012 z "
   id="path11" />
		<path
   style="stroke-width:6.29048777;stroke-miterlimit:10"
   d="M 59.838379,67.562012 C 58.905273,77.058594 55.834961,85.328613 50.64502,85.926758 C 45.083984,86.571777 41.474609,79.620606 38.453125,70.764648 C 35.342773,61.652344 39.256348,52.264648 46.72168,51.398926 C 54.1875,50.538574 60.785156,57.973633 59.838379,67.562012 L 59.838379,67.562012 z "
   id="path13" />
		<path
   style="fill:#647eba;fill-rule:evenodd;stroke:none"
   d="M 90.544434,57.624023 C 88.233887,67.808594 83.952148,76.318848 78.649902,76.14502 C 72.968262,75.963379 70.34668,67.82666 68.589844,57.712891 C 66.781738,47.303711 72.072266,37.712891 79.700195,37.957031 C 87.327148,38.206543 92.882324,47.34375 90.544434,57.624023 L 90.544434,57.624023 z "
   id="path15" />
		<path
   style="stroke-width:6.29048777;stroke-miterlimit:10"
   d="M 90.544434,57.624023 C 88.233887,67.808594 83.952148,76.318848 78.649902,76.14502 C 72.968262,75.963379 70.34668,67.82666 68.589844,57.712891 C 66.781738,47.303711 72.072266,37.712891 79.700195,37.957031 C 87.327148,38.206543 92.882324,47.34375 90.544434,57.624023 L 90.544434,57.624023 z "
   id="path17" />
		<path
   style="fill:#ffffff;fill-rule:evenodd;stroke:none"
   d="M 127.21826,99.521484 C 129.13525,104.21094 136.37451,107.91309 128.70068,116.16504 C 122.40967,125.8418 93.100098,135.66895 79.268555,148.43945 C 73.538574,156.09863 76.306152,162.9248 82.061035,166.27051 C 87.814453,169.61621 92.584961,172.3291 95.27002,168.65137 C 94.496582,157.80957 95.15625,155.50293 108.43701,151.80762 C 113.42529,148.82715 125.1167,145.96777 129.71826,150.15137 C 134.31689,154.33887 134.32568,167.75293 132.021,171.41504 C 129.72119,175.08105 115.90771,204.22363 81.769531,200.02637 C 47.626953,195.82129 29.594238,149.91504 29.594238,135.21875 C 29.594238,120.52832 31.552734,94.201172 80.030762,84.55957 C 123.83154,75.847168 127.21826,99.521485 127.21826,99.521485 L 127.21826,99.521484 z "
   id="path19" />
		<path
   style="stroke-width:6.29048777;stroke-linecap:round;stroke-linejoin:round;stroke-miterlimit:10"
   d="M 127.21826,99.521484 C 129.13525,104.21094 136.37451,107.91309 128.70068,116.16504 C 122.40967,125.8418 93.100098,135.66895 79.268555,148.43945 C 73.538574,156.09863 76.306152,162.9248 82.061035,166.27051 C 87.814453,169.61621 92.584961,172.3291 95.27002,168.65137 C 94.496582,157.80957 95.15625,155.50293 108.43701,151.80762 C 113.42529,148.82715 125.1167,145.96777 129.71826,150.15137 C 134.31689,154.33887 134.32568,167.75293 132.021,171.41504 C 129.72119,175.08105 115.90771,204.22363 81.769531,200.02637 C 47.626953,195.82129 29.594238,149.91504 29.594238,135.21875 C 29.594238,120.52832 31.552734,94.201172 80.030762,84.55957 C 123.83154,75.847168 127.21826,99.521485 127.21826,99.521485 L 127.21826,99.521484 z "
   id="path21" />
		<path
   style="fill:#ffffff;fill-rule:evenodd;stroke:none"
   d="M 122.38525,74.771973 C 114.86475,76.40918 110.51221,76.819336 106.94873,71.904297 C 104.07959,67.942871 104.38623,45.428711 113.67725,34.206543 C 127.9292,17.001465 147.24561,23.224121 148.50537,24.374024 C 165.12842,39.532715 129.90479,73.131348 122.38525,74.771973 z "
   id="path23" />
		<path
   style="stroke-width:6.29048777;stroke-miterlimit:10"
   d="M 122.38525,74.771973 C 114.86475,76.40918 110.51221,76.819336 106.94873,71.904297 C 104.07959,67.942871 104.38623,45.428711 113.67725,34.206543 C 127.9292,17.001465 147.24561,23.224121 148.50537,24.374024 C 165.12842,39.532715 129.90479,73.131348 122.38525,74.771973 z "
   id="path25" />
	</g>
</svg>