<?xml version="1.0" encoding="UTF-8" standalone="no"?>
<!-- Generator: Adobe Illustrator 9.0, SVG Export Plug-In  -->
<!-- This set of SVG files is a complete cards game with figures, numbers	-->
<!--    and backs of cards completely designed in SVG.				-->
<!--    									-->
<!--    Copyright (C) 2004 David Bellot						-->
<!--										-->
<!--    This library is free software; you can redistribute it and/or		-->
<!--    modify it under the terms of the GNU Lesser General Public		-->
<!--    License as published by the Free Software Foundation; either		-->
<!--    version 2 of the License, or (at your option) any later version		-->
<!--										-->
<!--    This library is distributed in the hope that it will be useful,		-->
<!--    but WITHOUT ANY WARRANTY; without even the implied warranty of		-->
<!--    MERCHANTABILITY or FITNESS FOR A PARTICULAR PURPOSE.  See the GNU	-->
<!--    Lesser General Public License for more details.				-->
<!--										-->
<!--    You should have received a copy of the GNU Lesser General Public	-->
<!--    License along with this library; if not, write to the Free Software	-->
<!--    Foundation, Inc., 59 Temple Place, Suite 330, Boston, MA 02111-1307  USA-->
<!--										-->
<!--    Contact the author David Bellot at bellot@stat.berkeley.edu or 		-->
<!--    david.bellot@free.fr or yimyom@users.sourceforge.net			-->
<svg
   xmlns:dc="http://purl.org/dc/elements/1.1/"
   xmlns:cc="http://web.resource.org/cc/"
   xmlns:rdf="http://www.w3.org/1999/02/22-rdf-syntax-ns#"
   xmlns:svg="http://www.w3.org/2000/svg"
   xmlns="http://www.w3.org/2000/svg"
   xmlns:sodipodi="http://sodipodi.sourceforge.net/DTD/sodipodi-0.dtd"
   xmlns:inkscape="http://www.inkscape.org/namespaces/inkscape"
   width="208"
   height="303"
   viewBox="0 0 167.08643 242.66699"
   xml:space="preserve"
   id="svg2"
   sodipodi:version="0.32"
   inkscape:version="0.45.1"
   sodipodi:docname="Card_back_07.svg"
   inkscape:output_extension="org.inkscape.output.svg.inkscape"
   sodipodi:docbase="C:\Documents and Settings\Flanker\Desktop"
   version="1.0"><metadata
   id="metadata36"><rdf:RDF><cc:Work
       rdf:about=""><dc:format>image/svg+xml</dc:format><dc:type
         rdf:resource="http://purl.org/dc/dcmitype/StillImage" /></cc:Work></rdf:RDF></metadata><defs
   id="defs34" /><sodipodi:namedview
   inkscape:window-height="573"
   inkscape:window-width="791"
   inkscape:pageshadow="2"
   inkscape:pageopacity="0.0"
   guidetolerance="10.0"
   gridtolerance="10.0"
   objecttolerance="10.0"
   borderopacity="1.0"
   bordercolor="#666666"
   pagecolor="#ffffff"
   id="base"
   width="208px"
   height="303px"
   inkscape:showpageshadow="false"
   inkscape:zoom="1.2428555"
   inkscape:cx="104.42902"
   inkscape:cy="151.66687"
   inkscape:window-x="198"
   inkscape:window-y="216"
   inkscape:current-layer="svg2" />
	<g
   id="Layer_x0020_1"
   style="fill-rule:nonzero;stroke:#000000;stroke-width:0.9984901;stroke-miterlimit:4"
   transform="matrix(1,0,0,1.0030266,0,-0.367228)">
		<path
   style="fill:#ffffff;stroke-width:0.49924505"
   d="M 166.83643,235.54785 C 166.83643,239.3252 163.74951,242.41699 159.96631,242.41699 L 7.1108398,242.41699 C 3.3359375,242.41699 0.25,239.3252 0.25,235.54785 L 0.25,7.1201172 C 0.25,3.3427734 3.3359375,0.25 7.1108398,0.25 L 159.96631,0.25 C 163.74951,0.25 166.83643,3.3427734 166.83643,7.1201172 L 166.83643,235.54785 L 166.83643,235.54785 z "
   id="path5" />
		<path
   style="fill:none;stroke:#201887;stroke-width:3.32574606;stroke-miterlimit:10"
   d="M 57.974609,107.95996 C 57.974609,120.19629 48.074707,130.12695 35.877441,130.12695 C 23.680664,130.12695 13.780762,120.19629 13.780762,107.95996 C 13.780762,95.723633 23.680664,85.79248 35.877441,85.79248 C 48.074707,85.79248 57.974609,95.723633 57.974609,107.95996 L 57.974609,107.95996 z "
   id="path7" />
		<path
   style="fill:none;stroke-width:3.32574606;stroke-miterlimit:10"
   d="M 106.15576,108.43408 C 106.15576,120.6709 96.256348,130.60156 84.058594,130.60156 C 71.861816,130.60156 61.962402,120.6709 61.962402,108.43408 C 61.962402,96.197754 71.861816,86.26709 84.058594,86.26709 C 96.256348,86.26709 106.15576,96.197754 106.15576,108.43408 z "
   id="path9" />
		<path
   style="fill:none;stroke:#e61408;stroke-width:3.32574606;stroke-miterlimit:10"
   d="M 154.55029,108.43408 C 154.55029,120.6709 144.65186,130.60156 132.45459,130.60156 C 120.25635,130.60156 110.35693,120.6709 110.35693,108.43408 C 110.35693,96.197754 120.25635,86.26709 132.45459,86.26709 C 144.65186,86.26709 154.55029,96.197754 154.55029,108.43408 z "
   id="path11" />
		<path
   style="fill:none;stroke:#fbf227;stroke-width:3.32574606;stroke-miterlimit:10"
   d="M 82.137207,131.73535 C 82.137207,143.97168 72.238281,153.90332 60.040527,153.90332 C 47.843262,153.90332 37.944336,143.97168 37.944336,131.73535 C 37.944336,119.49951 47.843262,109.56885 60.040527,109.56885 C 72.238281,109.56885 82.137207,119.49951 82.137207,131.73535 z "
   id="path13" />
		<path
   style="fill:none;stroke:#108d35;stroke-width:3.32574606;stroke-miterlimit:10"
   d="M 130.89111,131.73535 C 130.89111,143.97168 120.9917,153.90332 108.79443,153.90332 C 96.597168,153.90332 86.696777,143.97168 86.696777,131.73535 C 86.696777,119.49951 96.597168,109.56885 108.79443,109.56885 C 120.9917,109.56885 130.89111,119.49951 130.89111,131.73535 z "
   id="path15" />
		<path
   style="fill:#201887;fill-rule:evenodd;stroke:none"
   d="M 56.757813,108.10596 C 56.725586,109.55566 56.560059,111.00586 56.394043,111.7583 C 57.068848,111.80273 58.675293,112.89893 58.916992,111.59229 C 59.158691,110.31885 59.287598,108.49805 59.216309,107.14258 C 59.110352,105.78711 57.455566,108.09473 56.757813,108.10596 L 56.757813,108.10596 z "
   id="path17" />
		<path
   style="fill:none;stroke:#201887;stroke-width:0.82375431;stroke-miterlimit:10"
   d="M 56.757813,108.10596 C 56.725586,109.55566 56.560059,111.00586 56.394043,111.7583 C 57.068848,111.80273 58.675293,112.89893 58.916992,111.59229 C 59.158691,110.31885 59.287598,108.49805 59.216309,107.14258 C 59.110352,105.78711 57.455566,108.09473 56.757813,108.10596 L 56.757813,108.10596 z "
   id="path19" />
		<path
   style="fill-rule:evenodd;stroke:none"
   d="M 83.708984,129.35645 C 82.258789,129.32324 80.808594,129.15723 80.056152,128.99121 C 80.01123,129.66602 78.915527,131.27246 80.222168,131.51465 C 81.495117,131.75684 82.548828,131.88574 83.904297,131.81348 C 85.259277,131.70801 83.720215,130.05371 83.708984,129.35645 L 83.708984,129.35645 z "
   id="path21" />
		<path
   style="fill:none;stroke-width:0.82375431;stroke-miterlimit:10"
   d="M 83.708984,129.35645 C 82.258789,129.32324 80.808594,129.15723 80.056152,128.99121 C 80.01123,129.66602 78.915527,131.27246 80.222168,131.51465 C 81.495117,131.75684 82.548828,131.88574 83.904297,131.81348 C 85.259277,131.70801 83.720215,130.05371 83.708984,129.35645 L 83.708984,129.35645 z "
   id="path23" />
		<path
   style="fill-rule:evenodd;stroke:none"
   d="M 104.92334,108.22559 C 104.89014,109.67529 104.79053,111.15869 104.62451,111.91064 C 105.29932,111.95508 106.84131,113.31396 107.0835,112.00781 C 107.32373,110.73389 107.45361,109.38477 107.38135,108.02979 C 107.27686,106.67529 105.62158,108.21436 104.92334,108.22559 L 104.92334,108.22559 z "
   id="path25" />
		<path
   style="fill:none;stroke-width:0.82375431;stroke-miterlimit:10"
   d="M 104.92334,108.22559 C 104.89014,109.67529 104.79053,111.15869 104.62451,111.91064 C 105.29932,111.95508 106.84131,113.31396 107.0835,112.00781 C 107.32373,110.73389 107.45361,109.38477 107.38135,108.02979 C 107.27686,106.67529 105.62158,108.21436 104.92334,108.22559 L 104.92334,108.22559 z "
   id="path27" />
		<path
   style="fill:#e61408;fill-rule:evenodd;stroke:none"
   d="M 132.45361,129.35449 C 131.00342,129.32129 129.521,129.21973 128.76709,129.05469 C 128.72314,129.72949 127.36475,131.27148 128.67139,131.5127 C 129.94482,131.75488 131.29346,131.88379 132.64795,131.81152 C 134.00342,131.70605 132.46436,130.05176 132.45361,129.35449 L 132.45361,129.35449 z "
   id="path29" />
		<path
   style="fill:none;stroke:#e61408;stroke-width:0.82375431;stroke-miterlimit:10"
   d="M 132.45361,129.35449 C 131.00342,129.32129 129.521,129.21973 128.76709,129.05469 C 128.72314,129.72949 127.36475,131.27148 128.67139,131.5127 C 129.94482,131.75488 131.29346,131.88379 132.64795,131.81152 C 134.00342,131.70605 132.46436,130.05176 132.45361,129.35449 L 132.45361,129.35449 z "
   id="path31" />
	</g>
</svg>